<?xml version="1.0" encoding="utf-8"?>
<!-- Generator: Adobe Illustrator 21.1.0, SVG Export Plug-In . SVG Version: 6.00 Build 0)  -->
<svg version="1.1" xmlns="http://www.w3.org/2000/svg" xmlns:xlink="http://www.w3.org/1999/xlink" x="0px" y="0px"
	 viewBox="0 0 300 300" style="enable-background:new 0 0 300 300;" xml:space="preserve">
<style type="text/css">
	.st0{display:none;}
	.st1{display:inline;fill:none;stroke:#FFFFFF;stroke-width:1.2463;stroke-miterlimit:10;}
	.st2{display:inline;fill:#010101;}
	.st3{font-family:'Comfortaa-Bold';}
	.st4{font-size:57.9532px;}
	.st5{display:inline;fill:#FFFFFF;}
	.st6{font-family:'Comfortaa-Regular';}
	.st7{display:inline;}
	.st8{fill:none;}
	.st9{fill:#FFFFFF;}
	.st10{fill:none;stroke:#FFFFFF;stroke-width:1.4641;stroke-miterlimit:10;}
	.st11{fill:#010101;}
	.st12{fill:#7570B3;}
	.st13{fill:#D76127;}
	.st14{fill:#E5AC23;}
	.st15{fill:#E62A8A;}
	.st16{fill:#66A744;}
	.st17{fill:#199E77;}
	.st18{fill:#D76227;}
</style>
<g id="Layer_1" class="st0">
	<path class="st1" d="M139.9,155.9"/>
	<path class="st1" d="M217.6,170.1"/>
	<path class="st2" d="M148.7,146.1"/>
	<path class="st2" d="M155,72.5L260.5,92c0,0-19.2,11.9-4.3,29.7c12.3,15.1-3.5,31.2-17.1,34.2l-81.4,17.2c0,0-25.8-27.3-25.8-48.6
		S155,72.5,155,72.5z"/>
	<text transform="matrix(1 0 0 1 41.9379 139.5192)" class="st2 st3 st4">go</text>
	<text transform="matrix(1 0 0 1 131.9741 139.5182)" class="st5 st6 st4">cart</text>
	<g class="st7">
		<path class="st8" d="M195.9,150.8c-5.5-1.9-10.7-3.6-17.4-3.8c-0.4,0-0.8,0-1.3,0c-1.4,0-2.8,0.1-4.2,0.2
			c5.9,18.3,16.1,33.1,18.2,36l41.7-13.6c-1.2-2.2-4.4-8-7.8-15.6C212.1,156.3,203.8,153.5,195.9,150.8z"/>
		<path class="st8" d="M178.5,145.2c7,0.1,12.5,2,17.9,3.9c7.6,2.6,15.6,5.3,28,3.2c-2.8-6.4-5.6-13.8-7.7-21.4
			c-3.1-11.3,0.6-24.7,4.7-34.8c-10.4-1.2-21.2-1.2-31.5,1.3c-6,1.5-11.5,2.3-16.6,2.8c-2.7,7.1-4.5,15.1-4.4,23.8
			c0.1,7.3,1.6,14.5,3.6,21.3c1.5-0.1,3.1-0.2,4.7-0.2C177.7,145.2,178.1,145.2,178.5,145.2z"/>
		<path class="st8" d="M222.3,98.8c-3.3,8.7-6.6,21.2-3.8,31.5c2.1,7.7,5,15.2,7.8,21.6c19.2-4,39.7-22.5,42.1-24.7l2.7-16.6
			c-3.8-1.8-24.3-11.2-47.8-14.4C223,97.1,222.7,97.9,222.3,98.8z"/>
		<path class="st9" d="M272.6,109.3c-0.3-0.2-22.5-11.2-48.5-14.8c3.1-7.3,6.2-12.3,6.3-12.4l-1.6-1c-0.3,0.5-3.5,5.7-6.6,13.1
			c-10.7-1.3-22-1.3-32.7,1.3c-5.5,1.3-10.7,2.2-15.4,2.7c6.6-16,17.4-26.3,17.5-26.5l-1.3-1.4c-0.2,0.2-11.5,11.1-18.3,28
			c-25.4,2-39.3-6.9-39.5-7l-1,1.6c0.7,0.5,14.4,9.2,39.8,7.5c-2.6,7.1-4.3,15.1-4.2,23.7c0.1,7.3,1.5,14.6,3.6,21.5
			c-27.8,3-42.3,23.9-42.5,24.1l1.5,1c0.2-0.2,14.3-20.6,41.5-23.3c6.6,20.9,18.8,37.3,19,37.5l0.4,0.5l45.1-14.7l-0.6-1
			c-0.1-0.1-3.8-6.6-8.1-16.1c10.7-2.3,21.5-8.9,28.9-14c8.2-5.8,13.9-11.2,14-11.2l0.2-0.2l3-18.5L272.6,109.3z M168.9,124
			c-0.2-8.7,1.7-16.8,4.4-23.8c5.1-0.5,10.6-1.4,16.6-2.8c10.2-2.5,21.1-2.6,31.5-1.3c-4.1,10.1-7.8,23.5-4.7,34.8
			c2.1,7.6,4.9,15.1,7.7,21.4c-12.4,2.1-20.3-0.6-28-3.2c-5.4-1.8-11-3.7-17.9-3.9c-0.4,0-0.9,0-1.3,0c-1.6,0-3.2,0.1-4.7,0.2
			C170.5,138.5,169.1,131.3,168.9,124z M191.3,183.2c-2.1-2.9-12.3-17.7-18.2-36c1.4-0.1,2.8-0.2,4.2-0.2c0.4,0,0.8,0,1.3,0
			c6.7,0.1,11.9,1.9,17.4,3.8c8,2.7,16.2,5.5,29.3,3.2c3.4,7.6,6.5,13.4,7.8,15.6L191.3,183.2z M268.4,127.2
			c-2.4,2.2-22.9,20.7-42.1,24.7c-2.8-6.4-5.7-13.9-7.8-21.6c-2.8-10.3,0.5-22.8,3.8-31.5c0.3-0.9,0.7-1.7,1-2.5
			c23.5,3.1,44,12.6,47.8,14.4L268.4,127.2z"/>
	</g>
	<path class="st2" d="M272.2,134.9"/>
	<path class="st2" d="M356.4,189.7"/>
	<g class="st7">
		<g>
			<path d="M123.3,119.7c-1.3,0-2.6,0-3.9,0c-1.6,0-3.1,1.4-3,3c0.1,1.6,1.3,3,3,3c1.3,0,2.6,0,3.9,0c1.6,0,3.1-1.4,3-3
				C126.3,121.1,125,119.7,123.3,119.7L123.3,119.7z"/>
		</g>
	</g>
</g>
<g id="Layer_4">
	<path class="st10" d="M131.8,194.3"/>
	<path class="st10" d="M223.1,211"/>
	<path class="st11" d="M142.1,182.8"/>
	<path class="st11" d="M287.2,169.6"/>
	<path class="st12" d="M264.7,128.3c3.5-5.8,8.7-9.1,8.7-9.1l-39.3-7.3c-1,1.7-2.2,3.9-3.5,6.3C246.1,119.8,258.6,125.2,264.7,128.3
		z"/>
	<path class="st13" d="M191.7,123.9c12.6-5.5,25.2-6.7,36.4-5.8c1.3-2.5,2.6-4.7,3.6-6.6l-46.9-8.7c-1.8,3.1-8.4,14.6-13.7,26.9
		C177.4,128.9,184.3,127.1,191.7,123.9z"/>
	<path class="st14" d="M168.3,130.1c5.1-12.1,11.6-23.6,14-27.7l-32.8-6.1c0,0-8.8,11.7-16.3,26.4
		C139.2,126.1,151.6,131.4,168.3,130.1z"/>
	<path class="st15" d="M141.1,200.3c6.2,8.5,11.7,14.2,11.7,14.2l27.4-5.8c-3-5.9-7.8-15.4-11.7-25.3
		C154.7,185.8,146,194,141.1,200.3z"/>
	<path class="st13" d="M167.5,181.2c-3.7-9.5-6.5-19.1-6.2-26c0.2-6.4,2.7-14.6,6-22.7c-1.5,0.1-2.9,0.1-4.3,0.1
		c-6.7,0-12.5-1-17-2.2c-6-1.6-10.7-3.8-13.8-5.6c-5.3,10.6-9.7,22.5-9.7,32.6c0,13.6,9,29.4,17.2,40.9
		C144.9,191.8,153.8,183.7,167.5,181.2z"/>
	<path class="st16" d="M225.3,190.2c-8.7,0.7-14.8-1.1-21.6-3c-7.1-2.1-15.1-4.4-27.9-4.3c-1.7,0-3.3,0.1-4.9,0.3
		c4,9.9,8.8,19.5,11.7,25.1l45.9-9.7c0-0.1-0.1-0.2-0.1-0.3C227.4,195.9,226.3,193.1,225.3,190.2z"/>
	<path class="st14" d="M175.7,180.5c0.2,0,0.5,0,0.7,0c12.8,0,20.8,2.3,27.9,4.4c6.4,1.8,12.1,3.5,20.2,3
		c-3.2-9.2-6.5-20.5-7.4-32.4c-0.8-11,4.7-24.8,9.8-35.1c-10.6-0.7-22.4,0.5-34.3,5.7c-8.2,3.6-15.8,5.4-22.7,6.2
		c-3.5,8.3-6.2,16.8-6.4,23.1c-0.2,6.6,2.6,16.1,6.3,25.5C171.7,180.6,173.7,180.5,175.7,180.5z"/>
	<path class="st17" d="M235.3,188.5c-2.8,0.7-5.3,1.1-7.6,1.4c1,2.7,2,5.3,2.8,7.5c0.1,0.2,0.2,0.4,0.2,0.6l17.6-3.7
		c12.6-2.7,26.7-15,25.1-28.8C267.8,171.6,254.5,183.8,235.3,188.5z"/>
	<path class="st13" d="M226.8,187.6c2.4-0.3,5-0.7,7.9-1.4c20.2-4.9,33.7-18.4,38.3-23.5c-0.8-2.8-2.2-5.7-4.5-8.5
		c-8.1-9.6-7.6-17.8-4.8-23.8c-6.1-3.1-18.7-8.5-34.1-9.9c-5.2,10.1-10.9,24.1-10.1,34.7C220.3,167.2,223.6,178.4,226.8,187.6z"/>
</g>
<g id="Layer_2">
	<g>
		<path class="st13" d="M53,170.6c-3.1,2.5-6.7,3.8-10.8,3.8c-4.8,0-8.8-1.7-12.2-5c-3.4-3.4-5-7.4-5-12.2c0-4.8,1.7-8.8,5-12.2
			c3.4-3.4,7.4-5,12.2-5c4.7,0,8.8,1.7,12.2,5c3.4,3.4,5,7.4,5,12.2c0,0,0,16.7,0,22.8s-0.2,7-0.7,8.3c-0.5,1.3-1.1,2.5-1.9,3.6
			c-0.8,1.1-1.7,2.1-2.8,3c-1.1,0.9-2.3,1.6-3.5,2.2c-1.3,0.6-2.6,1.1-4,1.4s-2.8,0.5-4.1,0.5c-1.6,0-3.3-0.2-4.8-0.6
			c-1.6-0.4-3.1-1-4.5-1.9c-1.4-0.8-2.7-1.8-3.9-3c-1.2-1.2-2.2-2.6-3-4.1c-0.3-0.5-0.5-1-0.5-1.7c0-0.9,0.3-1.7,0.9-2.3
			c0.6-0.6,1.4-0.9,2.3-0.9c0.6,0,1.1,0.1,1.5,0.4c0.4,0.3,0.9,0.9,1.6,1.9c0.7,1,1.3,1.7,1.8,2.2c2.3,2.3,5.2,3.5,8.5,3.5
			c3.3,0,6.1-1.1,8.4-3.4c1.4-1.7,2.1-2.6,2.1-5C53,181.6,53,170.6,53,170.6z M42.2,146.4c-1.5,0-2.9,0.3-4.2,0.9
			c-1.3,0.6-2.5,1.3-3.4,2.3c-1,1-1.7,2.1-2.3,3.4c-0.6,1.3-0.8,2.7-0.8,4.2c0,1.5,0.3,2.9,0.8,4.2c0.6,1.3,1.3,2.5,2.3,3.4
			c1,1,2.1,1.7,3.4,2.3c1.3,0.6,2.7,0.9,4.2,0.9c1.5,0,2.9-0.3,4.2-0.9c1.3-0.6,2.5-1.4,3.4-2.3c1-1,1.7-2.1,2.3-3.4
			c0.6-1.3,0.8-2.7,0.8-4.2c0-1.5-0.3-2.9-0.8-4.2c-0.6-1.3-1.3-2.4-2.3-3.4c-1-1-2.1-1.8-3.4-2.3C45.1,146.7,43.7,146.4,42.2,146.4
			z"/>
		<path class="st13" d="M98.9,157.2c0,4.8-1.7,8.9-5,12.2c-3.4,3.4-7.5,5-12.2,5c-4.8,0-8.8-1.7-12.2-5c-3.4-3.4-5-7.4-5-12.2
			c0-4.8,1.7-8.8,5-12.2c3.4-3.4,7.4-5,12.2-5c4.7,0,8.8,1.7,12.2,5c1.7,1.7,2.9,3.5,3.8,5.6C98.4,152.6,98.9,154.8,98.9,157.2z
			 M81.6,146.4c-1.5,0-2.9,0.3-4.2,0.9c-1.3,0.6-2.5,1.3-3.4,2.3c-1,1-1.7,2.1-2.3,3.4c-0.6,1.3-0.8,2.7-0.8,4.2
			c0,1.5,0.3,2.9,0.8,4.2c0.6,1.3,1.3,2.5,2.3,3.4c1,1,2.1,1.7,3.4,2.3c1.3,0.6,2.7,0.9,4.2,0.9c1.5,0,2.9-0.3,4.2-0.9
			c1.3-0.6,2.5-1.4,3.4-2.3c1-1,1.7-2.1,2.3-3.4c0.6-1.3,0.8-2.7,0.8-4.2c0-1.5-0.3-2.9-0.8-4.2c-0.6-1.3-1.3-2.4-2.3-3.4
			s-2.1-1.8-3.4-2.3C84.5,146.7,83.1,146.4,81.6,146.4z"/>
	</g>
	<g>
		<path class="st9" d="M154,165.9c0.7,0,1.4,0.3,1.9,0.8c0.5,0.5,0.8,1.1,0.8,1.9s-0.3,1.4-0.8,2c-3.4,3-7.5,4.5-12.1,4.5
			c-5.1,0-9.5-1.8-13.2-5.5c-3.6-3.6-5.5-8-5.5-13.2s1.8-9.5,5.5-13.2c3.6-3.6,8-5.5,13.2-5.5c4.7,0,8.7,1.5,12.1,4.5
			c0.6,0.6,0.9,1.2,0.9,2.1c0,0.7-0.3,1.4-0.8,1.9c-0.5,0.5-1.1,0.8-1.9,0.8c-0.6,0-1.2-0.2-1.7-0.6c-2.5-2.2-5.4-3.3-8.7-3.3
			c-3.7,0-6.8,1.3-9.4,3.9c-2.6,2.6-3.9,5.7-3.9,9.4s1.3,6.8,3.9,9.4s5.7,3.9,9.4,3.9c3.3,0,6.2-1.1,8.7-3.3
			C152.9,166.1,153.4,165.9,154,165.9z"/>
		<path class="st9" d="M194.3,169.5c-3.7,3.7-8.2,5.6-13.3,5.6s-9.5-1.8-13.2-5.5c-3.6-3.6-5.5-8-5.5-13.2s1.8-9.5,5.5-13.2
			c3.6-3.6,8-5.5,13.2-5.5s9.5,1.8,13.2,5.5c3.6,3.6,5.5,8,5.5,13.2v16c0,0.7-0.3,1.4-0.8,1.9c-0.5,0.5-1.1,0.8-1.9,0.8
			s-1.4-0.3-1.9-0.8s-0.8-1.1-0.8-1.9V169.5z M181,143.1c-3.7,0-6.8,1.3-9.4,3.9c-2.6,2.6-3.9,5.7-3.9,9.4s1.3,6.8,3.9,9.4
			s5.7,3.9,9.4,3.9s6.8-1.3,9.4-3.9c2.6-2.6,3.9-5.7,3.9-9.4s-1.3-6.8-3.9-9.4C187.8,144.4,184.6,143.1,181,143.1z"/>
		<path class="st9" d="M204.9,140.5c0-0.7,0.3-1.4,0.8-1.9c0.5-0.5,1.1-0.8,1.9-0.8s1.4,0.3,1.9,0.8c0.5,0.5,0.8,1.1,0.8,1.9v2.9
			c3.7-3.7,8.2-5.6,13.3-5.6c2.6,0,5,0.4,7.1,1.3c0.4,0.2,0.8,0.4,1.1,0.7c0.5,0.5,0.8,1.2,0.8,1.9c0,0.7-0.3,1.4-0.8,1.9
			c-0.5,0.5-1.1,0.8-1.9,0.8c-0.4,0-0.8-0.1-1.2-0.3c-1.6-0.7-3.3-1-5.2-1c-3.7,0-6.8,1.3-9.4,3.9c-2.6,2.6-3.9,5.7-3.9,9.4v16
			c0,0.7-0.3,1.4-0.8,1.9c-0.5,0.5-1.1,0.8-1.9,0.8s-1.4-0.3-1.9-0.8s-0.8-1.1-0.8-1.9V140.5z"/>
		<path class="st9" d="M255.4,169.7c0.7,0,1.4,0.3,1.9,0.8c0.5,0.5,0.8,1.1,0.8,1.9c0,0.7-0.3,1.4-0.8,1.9c-0.5,0.5-1.1,0.8-1.9,0.8
			c-8.9,0-13.3-4.4-13.3-13.3v-18.6h-2.7c-0.7,0-1.4-0.3-1.9-0.8c-0.5-0.5-0.8-1.1-0.8-1.9c0-0.7,0.3-1.4,0.8-1.9
			c0.5-0.5,1.1-0.8,1.9-0.8h2.7v-13.3c0-0.7,0.3-1.4,0.8-1.9c0.5-0.5,1.1-0.8,1.9-0.8s1.4,0.3,1.9,0.8c0.5,0.5,0.8,1.1,0.8,1.9v13.3
			h5.4c0.7,0,1.4,0.3,1.9,0.8c0.5,0.5,0.8,1.1,0.8,1.9c0,0.7-0.3,1.4-0.8,1.9c-0.5,0.5-1.1,0.8-1.9,0.8h-5.4v18.6
			C247.5,167.1,250.1,169.7,255.4,169.7z"/>
	</g>
	<g>
		<g>
			<path class="st18" d="M112.2,150.4c-0.8,0-1.5,0-2.3,0c-1.5,0-3.1,0.7-4.2,1.7c-1,1-1.8,2.7-1.7,4.2c0.1,1.5,0.6,3.1,1.7,4.2
				c1.1,1.1,2.6,1.7,4.2,1.7c0.8,0,1.5,0,2.3,0c1.5,0,3.1-0.7,4.2-1.7c1-1,1.8-2.7,1.7-4.2c-0.1-1.5-0.6-3.1-1.7-4.2
				C115.2,151.1,113.8,150.4,112.2,150.4L112.2,150.4z"/>
		</g>
	</g>
</g>
<g id="Layer_3">
</g>
</svg>
